<svg width="403" height="411" viewBox="0 0 403 411" fill="none" xmlns="http://www.w3.org/2000/svg">
<path d="M95.0342 0.00683594C111.204 0.211688 126.216 5.21499 138.716 13.6562C142.85 5.55073 151.277 0 161 0C174.807 0 186 11.1929 186 25V298C186 311.807 174.807 323 161 323C151.277 323 142.851 317.449 138.717 309.344C125.951 317.965 110.564 323 94 323H80C35.8172 323 0 287.183 0 243V80C3.96372e-06 36.1625 35.2597 0.560548 78.9658 0.00683594L80 0H94L95.0342 0.00683594ZM80 50C63.4315 50 50 63.4315 50 80V243C50 259.569 63.4315 273 80 273H94C110.569 273 124 259.569 124 243V80C124 63.4315 110.569 50 94 50H80Z" fill="white"/>
<path d="M312.034 0.00683594C328.204 0.211688 343.216 5.21499 355.716 13.6562C359.85 5.55073 368.277 0 378 0C391.807 0 403 11.1929 403 25V386C403 399.807 391.807 411 378 411C364.193 411 353 399.807 353 386V311.101C340.793 318.645 326.405 323 311 323H297C252.817 323 217 287.183 217 243V80C217 36.1625 252.26 0.560548 295.966 0.00683594L297 0H311L312.034 0.00683594ZM297 50C280.431 50 267 63.4315 267 80V243C267 259.569 280.431 273 297 273H311C327.569 273 341 259.569 341 243V80C341 63.4315 327.569 50 311 50H297Z" fill="white"/>
</svg>
